<svg xmlns="http://www.w3.org/2000/svg" viewBox="1124 30 167 147" fill="currentColor">
  <path d="M1180.75,125.18l1.84,9.77,41.41-.51,37.06-.55c1.11-.02,3.19,1.66,3.33,2.67.17,1.25-1.8,3.22-3.4,3.22h-78.92c-2.35-.01-6.08-1.82-8.75-1.08-5.18-4.17-4.82-12.51-1.52-17.94l-5.1-20.6-11.29-49.75-18.32.47c-3.63.09-6.23-4.4-6.19-7.35s2.81-7.1,6.5-7.05l14.69.19c4.62.06,9.83,2.13,10.91,7.23l2.55,12.05,25.47-.79,37.12-.79,49.94-.73c1.5-.02,4.22.74,5.13,1.55,1.06.95,2.19,4.24,1.76,5.75l-16.18,56.68c-2.42,3.99-8.67,4.23-12.69,4.43l-39.04,1.92-36.29,1.2ZM1158.4,45.67c-.27-1.96-1.88-3.79-3.32-3.84l-16.6-.53c-.98-.03-2.83,2.36-2.34,3.12.39.61,2.05,1.54,3.13,1.52l19.12-.27ZM1275.97,75.28l4.07-16.99-11.29.32-13.58.39-1.79,17.04,22.59-.75ZM1248.77,75.93l2.56-17.08-26.88.62.62,17.35,11.83-.31,11.87-.59ZM1191.62,77.44l-2.03-17.23-23.05.99,3.64,16.9,21.44-.66ZM1220.57,76.93l.28-17.14-27.15.37,2.6,17.02,24.27-.26ZM1170.07,92.97l-7.47-30.97-.87,1.62,8.85,39.4c.56-3.04.31-6.61-.52-10.05ZM1261.59,96.37l8.06-.37,4.52-15.99-21.62,1.05-1.77,15.93,10.81-.63ZM1199.47,98.26l21.34-.37-.12-16.24-23.68.42,2.46,16.19ZM1246.19,96.8l2.09-15.89-23.32.59.8,16.1,20.42-.8ZM1194.82,98.56l-2.55-16.34-21.12.76,3.56,16.27,20.1-.69ZM1263.87,115.92l4.36-14.85-18.35.72-1.61,15.89c5.21-.18,10.92-.55,15.6-1.76ZM1243.38,117.75l2.2-15.98-19.98.81-.05,16.18,17.84-1ZM1197.97,119.77l-2.42-16.49-19.56.67,3.88,16.52,18.1-.7ZM1220.95,118.79l-.04-15.95-20.91.32,2.53,16.62,18.42-.99ZM1177.83,134.29l-1.92-9.48c-3.82,3.38-2.39,9.48,1.92,9.48Z"/>
  <path d="M1207.46,156.77c0,8.05-6.52,14.57-14.57,14.57s-14.57-6.52-14.57-14.57,6.52-14.57,14.57-14.57,14.57,6.52,14.57,14.57ZM1201.11,156.8c0-4.64-3.76-8.4-8.4-8.4s-8.4,3.76-8.4,8.4,3.76,8.4,8.4,8.4,8.4-3.76,8.4-8.4Z"/>
  <path d="M1264.92,156.77c0,7.97-6.46,14.43-14.43,14.43s-14.43-6.46-14.43-14.43,6.46-14.43,14.43-14.43,14.43,6.46,14.43,14.43ZM1258.91,156.75c0-4.61-3.73-8.34-8.34-8.34s-8.34,3.73-8.34,8.34,3.73,8.34,8.34,8.34,8.34-3.73,8.34-8.34Z"/>
</svg>
