<svg xmlns="http://www.w3.org/2000/svg" viewBox="474 446 151 132" fill="currentColor">
  <path d="M605.24,571.9l-111.93.03c-4.66,0-8.97-3.52-10.54-6.31-2.47-4.39-2.49-9.29.17-13.81l53.55-91.06c2.67-4.53,6.92-7.66,11.08-8.06,4.78-.46,10.42,1.37,13.05,5.78l33.21,55.66,22.77,40.21c1.7,3,.53,9.18-1.36,11.9-1.62,2.33-5.44,5.66-10.01,5.66ZM566.46,566.71l36.62-.32c2.81-.02,6.38-1.07,7.73-3.04,1.17-1.71,1.65-6.15.27-8.48l-55.26-93.61c-2.29-3.88-9.97-5.03-12.47-.81l-55.84,94c-1.4,2.36-1.5,5.98-.57,7.9.84,1.73,4.02,4.21,6.45,4.21l73.07.15Z"/>
  <path d="M555.45,525.7c-.18,3.61-2.93,6.04-5.96,6.29-2.15.18-5.9-2.46-6.08-5.27l-2.13-33.52c-.27-4.28,3.8-7.61,7.39-8.04,3.91-.47,8.64,3.17,8.4,7.92l-1.62,32.62ZM551.91,492.6c.06-1.23-3.84-2.42-4.38-1.49-.43.75-1.2,2.99-1.14,3.89l2.07,31.14,1.74-.7,1.72-32.85Z"/>
  <path d="M557.35,546.59c0,4.32-3.5,7.82-7.82,7.82s-7.82-3.5-7.82-7.82,3.5-7.82,7.82-7.82,7.82,3.5,7.82,7.82ZM552.49,546.5c0-1.67-1.35-3.02-3.02-3.02s-3.02,1.35-3.02,3.02,1.35,3.02,3.02,3.02,3.02-1.35,3.02-3.02Z"/>
</svg>
